<svg width="21" height="20" viewBox="0 0 21 20" fill="none" xmlns="http://www.w3.org/2000/svg">
<path d="M10.5 1.6665C9.40567 1.6665 8.32204 1.88205 7.31099 2.30084C6.29994 2.71963 5.38129 3.33346 4.60746 4.10728C3.04466 5.67008 2.16669 7.7897 2.16669 9.99984C2.16669 13.6832 4.55835 16.8082 7.86669 17.9165C8.28335 17.9832 8.41669 17.7248 8.41669 17.4998V16.0915C6.10835 16.5915 5.61669 14.9748 5.61669 14.9748C5.23335 14.0082 4.69169 13.7498 4.69169 13.7498C3.93335 13.2332 4.75002 13.2498 4.75002 13.2498C5.58335 13.3082 6.02502 14.1082 6.02502 14.1082C6.75002 15.3748 7.97502 14.9998 8.45002 14.7998C8.52502 14.2582 8.74169 13.8915 8.97502 13.6832C7.12502 13.4748 5.18335 12.7582 5.18335 9.58317C5.18335 8.65817 5.50002 7.9165 6.04169 7.32484C5.95835 7.1165 5.66669 6.24984 6.12502 5.12484C6.12502 5.12484 6.82502 4.89984 8.41669 5.97484C9.07502 5.7915 9.79169 5.69984 10.5 5.69984C11.2084 5.69984 11.925 5.7915 12.5834 5.97484C14.175 4.89984 14.875 5.12484 14.875 5.12484C15.3334 6.24984 15.0417 7.1165 14.9584 7.32484C15.5 7.9165 15.8167 8.65817 15.8167 9.58317C15.8167 12.7665 13.8667 13.4665 12.0084 13.6748C12.3084 13.9332 12.5834 14.4415 12.5834 15.2165V17.4998C12.5834 17.7248 12.7167 17.9915 13.1417 17.9165C16.45 16.7998 18.8334 13.6832 18.8334 9.99984C18.8334 8.90549 18.6178 7.82186 18.199 6.81081C17.7802 5.79976 17.1664 4.8811 16.3926 4.10728C15.6188 3.33346 14.7001 2.71963 13.689 2.30084C12.678 1.88205 11.5944 1.6665 10.5 1.6665Z" fill="#8C8C8C"/>
</svg>
