<svg width="50" height="50" viewBox="0 0 50 50" fill="none" xmlns="http://www.w3.org/2000/svg">
<rect x="1" y="1" width="48" height="48" rx="24" stroke="white" stroke-width="2"/>
<path d="M34.7093 22.6398L25.0493 13.0298L15.3893 22.6398C15.2753 22.7266 15.1813 22.8368 15.1137 22.9631C15.046 23.0894 15.0063 23.2287 14.9972 23.3717C14.988 23.5147 15.0098 23.6579 15.0608 23.7918C15.1119 23.9256 15.1911 24.0469 15.2931 24.1475C15.3951 24.2481 15.5176 24.3256 15.6521 24.3747C15.7867 24.4238 15.9302 24.4435 16.0731 24.4323C16.2159 24.4212 16.3546 24.3794 16.4799 24.31C16.6052 24.2405 16.7141 24.145 16.7993 24.0298L24.0493 16.8398V35.9698C24.0493 36.235 24.1547 36.4894 24.3422 36.6769C24.5297 36.8644 24.7841 36.9698 25.0493 36.9698C25.3145 36.9698 25.5689 36.8644 25.7564 36.6769C25.9439 36.4894 26.0493 36.235 26.0493 35.9698V16.8398L33.2993 24.0298C33.4876 24.2168 33.7425 24.3213 34.0078 24.3203C34.2732 24.3194 34.5273 24.2131 34.7143 24.0248C34.9013 23.8365 35.0058 23.5816 35.0049 23.3162C35.0039 23.0509 34.8976 22.7968 34.7093 22.6098V22.6398Z" fill="white"/>
</svg>
