<svg width="101" height="100" viewBox="0 0 101 100" fill="none" xmlns="http://www.w3.org/2000/svg">
<g filter="url(#filter0_di_7_51)">
<rect x="25.5" y="10" width="50" height="50" rx="12" fill="url(#paint0_linear_7_51)" shape-rendering="crispEdges"/>
<g clip-path="url(#clip0_7_51)">
<path d="M57.5375 42.0444H54.5794V37.4025C54.5794 36.2956 54.5562 34.8731 53.0325 34.8731C51.49 34.8731 51.255 36.0737 51.255 37.3206V42.0438H48.2931V32.4994H51.1381V33.8012H51.1763C51.5738 33.0494 52.5406 32.2587 53.9831 32.2587C56.9837 32.2587 57.5406 34.2344 57.5406 36.8031V42.0438L57.5375 42.0444ZM44.9469 31.195C44.7208 31.1951 44.4969 31.1506 44.2881 31.064C44.0792 30.9774 43.8895 30.8505 43.7298 30.6905C43.5701 30.5305 43.4435 30.3405 43.3573 30.1315C43.2711 29.9225 43.227 29.6986 43.2275 29.4725C43.2279 29.1322 43.3291 28.7997 43.5185 28.517C43.7078 28.2342 43.9767 28.014 44.2913 27.8841C44.6058 27.7542 44.9517 27.7204 45.2854 27.7871C45.6191 27.8538 45.9255 28.018 46.1659 28.2588C46.4063 28.4996 46.5699 28.8064 46.636 29.1402C46.7021 29.474 46.6677 29.8199 46.5372 30.1341C46.4068 30.4484 46.186 30.7169 45.9029 30.9058C45.6199 31.0946 45.2872 31.1952 44.9469 31.195ZM46.4306 42.0444H43.4625V32.5H46.4306V42.0444ZM59.0225 25H41.975C41.1606 25 40.5 25.6444 40.5 26.4419V43.5588C40.5 44.3563 41.1606 45.0006 41.975 45.0006H59.0194C59.8325 45.0006 60.5 44.3563 60.5 43.5588V26.4419C60.5 25.6444 59.8325 25 59.0194 25H59.0225Z" fill="#8C8C8C"/>
</g>
</g>
<defs>
<filter id="filter0_di_7_51" x="0.5" y="0" width="100" height="100" filterUnits="userSpaceOnUse" color-interpolation-filters="sRGB">
<feFlood flood-opacity="0" result="BackgroundImageFix"/>
<feColorMatrix in="SourceAlpha" type="matrix" values="0 0 0 0 0 0 0 0 0 0 0 0 0 0 0 0 0 0 127 0" result="hardAlpha"/>
<feOffset dy="15"/>
<feGaussianBlur stdDeviation="12.5"/>
<feComposite in2="hardAlpha" operator="out"/>
<feColorMatrix type="matrix" values="0 0 0 0 0 0 0 0 0 0 0 0 0 0 0 0 0 0 0.5 0"/>
<feBlend mode="normal" in2="BackgroundImageFix" result="effect1_dropShadow_7_51"/>
<feBlend mode="normal" in="SourceGraphic" in2="effect1_dropShadow_7_51" result="shape"/>
<feColorMatrix in="SourceAlpha" type="matrix" values="0 0 0 0 0 0 0 0 0 0 0 0 0 0 0 0 0 0 127 0" result="hardAlpha"/>
<feOffset dy="2"/>
<feGaussianBlur stdDeviation="1"/>
<feComposite in2="hardAlpha" operator="arithmetic" k2="-1" k3="1"/>
<feColorMatrix type="matrix" values="0 0 0 0 0.333333 0 0 0 0 0.898039 0 0 0 0 0.643137 0 0 0 1 0"/>
<feBlend mode="normal" in2="shape" result="effect2_innerShadow_7_51"/>
</filter>
<linearGradient id="paint0_linear_7_51" x1="50.5" y1="10" x2="50.5" y2="60" gradientUnits="userSpaceOnUse">
<stop stop-color="#343236"/>
<stop offset="1" stop-color="#38343F"/>
</linearGradient>
<clipPath id="clip0_7_51">
<rect width="20" height="20" fill="white" transform="translate(40.5 25)"/>
</clipPath>
</defs>
</svg>
