<svg xmlns="http://www.w3.org/2000/svg" version="1.1" xmlns:xlink="http://www.w3.org/1999/xlink" xmlns:svgjs="http://svgjs.dev/svgjs" width="2000" height="1101" viewBox="0 0 2000 1101"><g transform="matrix(1,0,0,1,-1.2121212121212466,0.8172114136687014)"><svg viewBox="0 0 396 218" data-background-color="#ffffff" preserveAspectRatio="xMidYMid meet" height="1101" width="2000" xmlns="http://www.w3.org/2000/svg" xmlns:xlink="http://www.w3.org/1999/xlink"><g id="tight-bounds" transform="matrix(1,0,0,1,0.2400000000000091,-0.16180934439580597)"><svg viewBox="0 0 395.52 218.3236186887916" height="218.3236186887916" width="395.52"><g><svg viewBox="0 0 395.52 218.3236186887916" height="218.3236186887916" width="395.52"><g><svg viewBox="0 0 395.52000000000004 218.32361868879164" height="218.3236186887916" width="395.52"><g><svg viewBox="0 0 395.52000000000004 218.32361868879164" height="218.32361868879164" width="395.52000000000004"><g id="textblocktransform"><svg viewBox="0 0 395.52000000000004 218.32361868879164" height="218.32361868879164" width="395.52000000000004" id="textblock"><g><svg viewBox="0 0 395.52000000000004 218.32361868879164" height="218.32361868879164" width="395.52000000000004"><g transform="matrix(1,0,0,1,0,0)"><svg width="395.52000000000004" viewBox="1.15 -39.75 92.48333333333 51.05" height="218.32361868879164" data-palette-color="#ffffff"><path d="M4.4 10.35L4.4 10.35Q2.8 10.35 1.65 8.75L1.65 8.75Q1.15 8.05 1.15 6.9L1.15 6.9Q1.15 5.65 1.65 4.17 2.15 2.7 2.93 1.2 3.7-0.3 4.5-1.6 5.3-2.9 5.9-3.8L5.9-3.8Q6.95-5.55 8.6-7.95 10.25-10.35 11.98-12.8 13.7-15.25 15-17.2L15-17.2Q17.35-20.75 19.3-24.28 21.25-27.8 22.2-31.1L22.2-31.1Q22.55-31.3 23.1-31.53 23.65-31.75 24.05-31.7L24.05-31.7Q24.8-31.4 24.9-30.75L24.9-30.75 25.6-30.8Q26.65-30.75 26.65-29.75L26.65-29.75Q26.65-29.45 26.55-29.08 26.45-28.7 26.3-28.3L26.3-28.3Q25.85-27.35 25.23-25.43 24.6-23.5 23.93-21.05 23.25-18.6 22.65-16.05 22.05-13.5 21.7-11.35L21.7-11.35Q21.35-9.45 21.13-7.5 20.9-5.55 20.9-3.8L20.9-3.8Q20.9-1.1 21.58 0.75 22.25 2.6 24 2.6L24 2.6Q25.1 2.6 26.65 1.2L26.65 1.2Q28.25-0.2 30.03-2.6 31.8-5 33.65-8.2L33.65-8.2Q35.45-11.35 37-14.8L37-14.8Q38.5-18.25 39.6-21.73 40.7-25.2 41.05-28.25L41.05-28.25Q41.1-28.85 41.15-29.65 41.2-30.45 41.2-31.3L41.2-31.3Q41.2-32 41.15-32.65 41.1-33.3 41-33.85L41-33.85Q40.55-35.9 39.15-35.9L39.15-35.9Q38.35-35.9 37.1-35.05L37.1-35.05Q36.7-34.75 36.7-35L36.7-35Q36.7-35.25 36.95-35.65L36.95-35.65Q37.55-36.05 38.38-36.55 39.2-37.05 40.1-37.05L40.1-37.05Q42.6-37.05 43.73-35.4 44.85-33.75 44.85-31.35L44.85-31.35Q44.85-28.6 43.85-24.98 42.85-21.35 41.25-17.4L41.25-17.4Q39.85-13.95 38.1-10.53 36.35-7.1 34.4-4.15L34.4-4.15Q33.05-2.1 31.28-0.33 29.5 1.45 27.6 2.53 25.7 3.6 24.05 3.6L24.05 3.6Q22.2 3.6 21.25 2.3L21.25 2.3Q20.2 1 19.75-1.18 19.3-3.35 19.3-6.15L19.3-6.15Q19.3-7.35 19.38-8.63 19.45-9.9 19.6-11.2L19.6-11.2Q19.85-14.05 20.35-16.93 20.85-19.8 21.4-22.3L21.4-22.3Q20.65-21.15 19.38-19.45 18.1-17.75 16.73-15.9 15.35-14.05 14.25-12.6L14.25-12.6Q12.15-9.7 9.9-6.35 7.65-3 5.45 0.9L5.45 0.9Q5.2 1.35 4.67 2.23 4.15 3.1 3.6 4.13 3.05 5.15 2.68 6.15 2.3 7.15 2.3 7.8L2.3 7.8Q2.3 8.4 2.7 8.55L2.7 8.55Q3.05 8.75 3.55 8.75L3.55 8.75Q4.45 8.75 5.55 8.2 6.65 7.65 7.78 6.98 8.9 6.3 9.85 5.9L9.85 5.9Q9.9 5.85 10 5.85L10 5.85Q9.85 5.85 9.2 6.53 8.55 7.2 7.9 7.95 7.25 8.7 7 9.05L7 9.05Q5.85 10.35 4.4 10.35ZM5.85-17.3L5.85-17.3Q5.3-17.3 4.28-17.75 3.25-18.2 2.43-19.1 1.6-20 1.6-21.25L1.6-21.25Q1.6-22.6 2.13-23.75 2.65-24.9 3.6-25.9L3.6-25.9Q5.4-27.7 8.03-28.95 10.65-30.2 13.75-30.9L13.75-30.9Q16.8-31.6 19.55-32L19.55-32Q21.8-32.35 24-32.48 26.2-32.6 27-32.65L27-32.65 27.15-32.65Q27.7-32.65 27.7-32.45L27.7-32.45Q27.7-32.1 26.8-32.1L26.8-32.1Q25.85-32.1 24.8-32.08 23.75-32.05 22.55-31.9L22.55-31.9Q20.3-31.55 17.93-30.85 15.55-30.15 13.3-29.1L13.3-29.1Q11-28.05 9.2-26.7L9.2-26.7Q7.35-25.3 6.18-23.6 5-21.9 4.85-19.95L4.85-19.95Q4.8-19.8 4.8-19.4L4.8-19.4Q4.8-18.9 5.08-18.38 5.35-17.85 6-17.65L6-17.65Q6.25-17.45 6.15-17.35 6.05-17.25 5.85-17.3ZM79.5 11.3L79.5 11.3Q77.15 11.3 75.3 9.85L75.3 9.85Q73.45 8.45 71.85 5.88 70.25 3.3 68.72 0.28 67.2-2.75 65.67-5.6 64.15-8.45 62.5-10.5L62.5-10.5Q60.05-7.45 57.97-4.33 55.9-1.2 54.05 2.4L54.05 2.4Q53.2 3.95 52.35 5.18 51.5 6.4 50.75 6.4L50.75 6.4Q49.6 6.4 49.6 4.65L49.6 4.65Q49.6 4.3 49.65 3.88 49.7 3.45 49.8 2.95L49.8 2.95Q50.05 1.65 50.77-0.53 51.5-2.7 52.45-5.13 53.4-7.55 54.37-9.78 55.35-12 56.1-13.45L56.1-13.45 56.5-14.2Q55.1-14.3 53.6-13.93 52.1-13.55 50.65-12.6L50.65-12.6Q50.05-12.25 50.05-12.5L50.05-12.5Q50.05-13.1 51.3-13.75L51.3-13.75Q52-14.1 53.15-14.53 54.3-14.95 55.8-14.95L55.8-14.95Q56.05-14.95 56.32-14.95 56.6-14.95 56.85-14.9L56.85-14.9Q57.65-16.5 58.62-18.75 59.6-21 60.5-23.4 61.4-25.8 62.02-27.8 62.65-29.8 62.7-30.95L62.7-30.95Q61.4-27.6 59.7-25.1 58-22.6 55.95-20.35L55.95-20.35Q54.95-19.3 53.52-17.93 52.1-16.55 50.5-15.28 48.9-14 47.37-13.15 45.85-12.3 44.6-12.3L44.6-12.3Q42.5-12.3 41.52-13.15 40.55-14 40.4-15.2L40.4-15.2 40.4-15.45Q40.4-16.15 40.7-16.3L40.7-16.3Q40.7-16.3 40.8-16.3L40.8-16.3Q41-16.3 41-15.85L41-15.85Q41-15.35 41.2-14.75 41.4-14.15 42.15-14.15L42.15-14.15Q42.8-14.15 44.32-14.53 45.85-14.9 47.7-15.95L47.7-15.95Q50.05-17.25 53.2-19.98 56.35-22.7 60.15-27.6L60.15-27.6Q61.15-28.9 61.82-30.35 62.5-31.8 63.1-32.93 63.7-34.05 64.55-34.45L64.55-34.45Q64.95-34.6 65.2-34.6L65.2-34.6Q66.15-34.6 66.67-33.45 67.2-32.3 67.2-30.8L67.2-30.8Q67.2-30.45 67.2-30.13 67.2-29.8 67.1-29.45L67.1-29.45Q66.95-28.5 66.12-26.63 65.3-24.75 64.1-22.45 62.9-20.15 61.7-17.93 60.5-15.7 59.6-14.05L59.6-14.05Q61.05-13.2 62.25-12.15L62.25-12.15Q62.95-13.05 63.6-14L63.6-14Q64.25-14.9 64.95-15.8L64.95-15.8Q67.15-18.75 69.97-22.13 72.8-25.5 76.05-28.7L76.05-28.7Q79.25-31.85 82.75-34.5 86.25-37.15 89.8-38.65L89.8-38.65Q90.55-38.95 91.3-39.23 92.05-39.5 92.8-39.65L92.8-39.65Q92.95-39.7 93.07-39.73 93.2-39.75 93.25-39.75L93.25-39.75Q93.5-39.75 93.6-39.55L93.6-39.55Q93.7-39.2 93.5-39.25L93.5-39.25Q92.75-39.45 91.5-38.85 90.25-38.25 88.85-37.25 87.45-36.25 86.3-35.3L86.3-35.3Q85.2-34.4 83.82-33.15 82.45-31.9 81.3-30.83 80.15-29.75 79.65-29.25L79.65-29.25Q78.95-28.6 77.67-27.3 76.4-26 74.82-24.33 73.25-22.65 71.57-20.83 69.9-19 68.37-17.3 66.85-15.6 65.7-14.25L65.7-14.25Q65-13.45 64.37-12.73 63.75-12 63.2-11.25L63.2-11.25Q64.75-9.7 66.47-7.38 68.2-5.05 69.95-2.53 71.7 0 73.35 2.23 75 4.45 76.5 5.85L76.5 5.85Q77.95 7.1 79.35 8.22 80.75 9.35 81.95 9.35L81.95 9.35Q82.75 9.35 83.4 8.7L83.4 8.7Q84.05 8.05 84.35 7 84.65 5.95 84.8 4.8 84.95 3.65 85.2 2.7L85.2 2.7Q85.25 2.6 85.35 2.6L85.35 2.6Q85.4 2.6 85.4 3.1L85.4 3.1Q85.4 4.05 85.55 4.85 85.7 5.65 85.7 6.4L85.7 6.4Q85.7 7.05 85.47 7.73 85.25 8.4 84.55 9.1L84.55 9.1Q83.45 10.2 82.15 10.75 80.85 11.3 79.5 11.3ZM50.85 5.2L50.85 5.2Q51 5.2 51.3 4.7L51.3 4.7Q51.5 4.3 52.45 2.75 53.4 1.2 54.5-0.5L54.5-0.5Q55.9-2.7 57.75-5.53 59.6-8.35 61.75-11.35L61.75-11.35Q61.15-12 60.55-12.5 59.95-13 59.25-13.35L59.25-13.35 57.5-9.95Q57.25-9.45 56.67-8.28 56.1-7.1 55.42-5.73 54.75-4.35 54.17-3.13 53.6-1.9 53.3-1.3L53.3-1.3Q52.9-0.45 52.32 0.78 51.75 2 51.3 3.03 50.85 4.05 50.75 4.35L50.75 4.35Q50.7 4.45 50.7 4.58 50.7 4.7 50.7 4.8L50.7 4.8Q50.7 5.2 50.85 5.2Z" opacity="1" transform="matrix(1,0,0,1,0,0)" fill="#ffffff" class="wordmark-text-0" data-fill-palette-color="primary" id="text-0"></path></svg></g></svg></g></svg></g></svg></g><g></g></svg></g></svg></g><defs></defs></svg><rect width="395.52" height="218.3236186887916" fill="none" stroke="none" visibility="hidden"></rect></g></svg></g></svg>