<svg width="101" height="100" viewBox="0 0 101 100" fill="none" xmlns="http://www.w3.org/2000/svg">
<g filter="url(#filter0_di_7_54)">
<rect x="25.5" y="10" width="50" height="50" rx="12" fill="url(#paint0_linear_7_54)" shape-rendering="crispEdges"/>
<path d="M56.688 23C56.171 23 55.947 23.325 55.761 23.66C55.761 23.66 48.306 36.884 48.059 37.317C48.074 37.341 52.978 46.34 52.978 46.34C53.148 46.648 53.414 47 53.945 47H57.399C57.61 47 57.774 46.922 57.862 46.78C57.951 46.629 57.951 46.434 57.853 46.244L52.974 37.328C52.9719 37.3247 52.9707 37.3209 52.9707 37.317C52.9707 37.3131 52.9719 37.3093 52.974 37.306L60.639 23.756C60.734 23.565 60.736 23.369 60.645 23.221C60.556 23.078 60.394 23 60.186 23H56.688ZM42.148 27.74C41.937 27.74 41.763 27.814 41.675 27.956C41.585 28.105 41.597 28.295 41.695 28.487L44.035 32.537C44.039 32.5463 44.039 32.5533 44.035 32.558L40.36 39.051C40.3127 39.1311 40.2877 39.2225 40.2877 39.3155C40.2877 39.4085 40.3127 39.4999 40.36 39.58C40.445 39.722 40.599 39.814 40.81 39.814H44.271C44.789 39.814 45.037 39.466 45.216 39.147L48.95 32.538L46.572 28.383C46.4 28.068 46.138 27.724 45.61 27.724H42.148V27.74Z" fill="#8C8C8C"/>
</g>
<defs>
<filter id="filter0_di_7_54" x="0.5" y="0" width="100" height="100" filterUnits="userSpaceOnUse" color-interpolation-filters="sRGB">
<feFlood flood-opacity="0" result="BackgroundImageFix"/>
<feColorMatrix in="SourceAlpha" type="matrix" values="0 0 0 0 0 0 0 0 0 0 0 0 0 0 0 0 0 0 127 0" result="hardAlpha"/>
<feOffset dy="15"/>
<feGaussianBlur stdDeviation="12.5"/>
<feComposite in2="hardAlpha" operator="out"/>
<feColorMatrix type="matrix" values="0 0 0 0 0 0 0 0 0 0 0 0 0 0 0 0 0 0 0.5 0"/>
<feBlend mode="normal" in2="BackgroundImageFix" result="effect1_dropShadow_7_54"/>
<feBlend mode="normal" in="SourceGraphic" in2="effect1_dropShadow_7_54" result="shape"/>
<feColorMatrix in="SourceAlpha" type="matrix" values="0 0 0 0 0 0 0 0 0 0 0 0 0 0 0 0 0 0 127 0" result="hardAlpha"/>
<feOffset dy="2"/>
<feGaussianBlur stdDeviation="1"/>
<feComposite in2="hardAlpha" operator="arithmetic" k2="-1" k3="1"/>
<feColorMatrix type="matrix" values="0 0 0 0 0.333333 0 0 0 0 0.898039 0 0 0 0 0.643137 0 0 0 1 0"/>
<feBlend mode="normal" in2="shape" result="effect2_innerShadow_7_54"/>
</filter>
<linearGradient id="paint0_linear_7_54" x1="50.5" y1="10" x2="50.5" y2="60" gradientUnits="userSpaceOnUse">
<stop stop-color="#343236"/>
<stop offset="1" stop-color="#38343F"/>
</linearGradient>
</defs>
</svg>
